<svg width="12" height="12" viewBox="0 0 12 12" fill="none" xmlns="http://www.w3.org/2000/svg">
<path d="M10.874 7.12404H7.12401V10.874C7.12401 11.1228 7.02519 11.3614 6.84928 11.5373C6.67337 11.7132 6.43479 11.812 6.18601 11.812C5.93724 11.812 5.69866 11.7132 5.52275 11.5373C5.34684 11.3614 5.24801 11.1228 5.24801 10.874V7.12404H1.49801C1.25467 7.11609 1.02396 7.01383 0.85463 6.83889C0.685304 6.66394 0.590637 6.43001 0.590637 6.18654C0.590637 5.94307 0.685304 5.70913 0.85463 5.53419C1.02396 5.35924 1.25467 5.25698 1.49801 5.24904H5.24801V1.49904C5.24801 1.25026 5.34684 1.01168 5.52275 0.83577C5.69866 0.659861 5.93724 0.561035 6.18601 0.561035C6.43479 0.561035 6.67337 0.659861 6.84928 0.83577C7.02519 1.01168 7.12401 1.25026 7.12401 1.49904V5.24904H10.874C11.1228 5.24904 11.3614 5.34786 11.5373 5.52377C11.7132 5.69968 11.812 5.93826 11.812 6.18704C11.812 6.43581 11.7132 6.67439 11.5373 6.8503C11.3614 7.02621 11.1228 7.12404 10.874 7.12404Z" fill="white"/>
</svg>
